<svg width="464" height="116" viewBox="0 0 464 116" fill="currentColor" xmlns="http://www.w3.org/2000/svg"
  class="logoImage">
  <path
    d="M63.26 37.3733L42.3321 89.3638H67.4974L76.3084 114.529H0L47.41 1.24671H80.4057L127.662 114.529H94.0845L63.26 37.3733ZM410.56 63.246L410.707 62.6717C410.994 61.544 411.344 60.5284 411.729 59.6529C413.13 56.5362 414.965 54.1898 417.199 52.684C419.448 51.1711 421.955 50.4007 424.645 50.4007C426.998 50.4007 429.267 51.003 431.396 52.1727C433.526 53.3494 435.34 55.1914 436.796 57.6498C437.63 59.0716 438.218 60.7736 438.533 62.7067L438.632 63.246H410.56ZM460.358 52.4458C459.258 49.9594 457.962 47.6481 456.485 45.5399C455.007 43.4247 453.333 41.5056 451.491 39.7896C447.8 36.3717 443.569 33.7382 438.912 31.9732C434.261 30.2082 429.351 29.3117 424.315 29.3117C416.926 29.3117 410.034 31.0767 403.822 34.5577C397.616 38.0316 392.573 43.0255 388.826 49.3991C385.079 55.7657 383.174 63.4001 383.174 72.085C383.174 78.9489 384.428 85.1685 386.886 90.5685C389.344 95.9756 392.79 100.584 397.126 104.275C401.461 107.973 406.546 110.831 412.227 112.757C417.914 114.69 424.175 115.671 430.843 115.671C435.669 115.671 440.467 115.132 445.096 114.053C449.621 113.002 453.998 111.412 458.117 109.332V87.1716C453.893 89.0907 449.817 90.6176 445.979 91.7032C441.93 92.8518 437.721 93.4402 433.449 93.4402C428.84 93.4402 424.743 92.6557 421.269 91.1148C417.781 89.56 414.958 87.1716 412.906 84.0058C412.283 83.0462 411.736 81.9466 411.274 80.7349L411.036 80.0976H463.04C463.138 78.6618 463.265 77.0859 463.419 75.3068C463.58 73.4858 463.664 71.6227 463.664 69.7947C463.664 63.26 462.55 57.4257 460.358 52.4458ZM347.103 83.2564C346.242 84.6992 345.24 85.9739 344.106 87.0875C342.971 88.1872 341.703 89.1187 340.317 89.8751C337.536 91.367 334.552 92.1304 331.443 92.1304C329.636 92.1304 327.786 91.8923 325.944 91.423L325.594 91.332V53.9307L325.951 53.8466C327.927 53.3984 330.042 53.1743 332.255 53.1743C335.365 53.1743 338.264 53.8466 340.877 55.1844C343.503 56.5222 345.647 58.6234 347.272 61.4109C348.875 64.1915 349.695 67.7846 349.695 72.085C349.695 76.6096 348.819 80.3707 347.103 83.2564ZM373.852 52.9361C371.547 47.6411 368.375 43.1936 364.417 39.7196C360.46 36.2456 356.041 33.6401 351.278 31.9802C346.508 30.3132 341.591 29.4728 336.668 29.4728C332.906 29.4728 329.376 29.865 326.169 30.6284L325.594 30.7685V0H297.319V109.15C302.397 111.454 307.713 113.184 313.099 114.291C318.597 115.426 324.656 116 331.12 116C336.906 116 342.649 115.047 348.182 113.17C353.701 111.293 358.723 108.471 363.122 104.773C367.506 101.082 371.015 96.4379 373.522 90.9818C376.037 85.5187 377.319 79.054 377.319 71.7558C377.319 64.5697 376.149 58.2311 373.852 52.9361ZM261.564 83.3824C260.863 84.8253 260.058 86.1 259.14 87.1856C258.223 88.2642 257.207 89.1537 256.087 89.8611C253.845 91.2549 251.345 91.9693 248.655 91.9693C245.973 91.9693 243.472 91.2549 241.231 89.8611C238.983 88.4533 237.148 86.2821 235.754 83.3824C234.367 80.5108 233.674 76.8197 233.674 72.4072C233.674 67.8966 234.367 64.1775 235.754 61.3549C237.148 58.5113 238.983 56.3611 241.231 54.9603C243.472 53.5665 245.973 52.8521 248.655 52.8521C251.345 52.8521 253.838 53.5665 256.087 54.9603C258.328 56.3611 260.17 58.5113 261.564 61.3549C262.944 64.1845 263.651 67.9036 263.651 72.4072C263.651 76.8127 262.944 80.5038 261.564 83.3824ZM285.461 48.6637C281.609 42.241 276.405 37.3102 269.983 33.9903C266.761 32.3304 263.364 31.0837 259.806 30.2432C256.241 29.4097 252.522 28.9825 248.655 28.9825C240.944 28.9825 233.765 30.6705 227.335 33.9903C220.913 37.3102 215.681 42.241 211.772 48.6707C207.864 55.0863 205.889 63.0709 205.889 72.4072C205.889 81.7435 207.864 89.7351 211.772 96.1507C215.681 102.573 220.92 107.539 227.335 110.915C233.765 114.291 240.937 116 248.655 116C256.269 116 263.413 114.291 269.899 110.915C276.37 107.539 281.609 102.573 285.461 96.1577C289.314 89.7351 291.268 81.7435 291.268 72.4072C291.268 63.0709 289.314 55.0863 285.461 48.6637ZM171.724 91.1849L171.367 91.2759C169.377 91.7382 167.318 91.9693 165.217 91.9693C162.219 91.9693 159.348 91.2619 156.686 89.8751C154.004 88.4813 151.825 86.3311 150.207 83.4945C148.604 80.6579 147.784 76.9878 147.784 72.5753C147.784 68.0577 148.569 64.3036 150.123 61.4179C151.685 58.5113 153.871 56.3611 156.616 55.0233C159.327 53.6855 162.387 53.0132 165.714 53.0132C167.64 53.0132 169.545 53.2373 171.367 53.6785L171.724 53.7696V91.1849ZM171.724 0V30.1872L171.17 30.0821C168.509 29.5708 165.735 29.3117 162.941 29.3117C157.583 29.3117 152.246 30.2292 147.105 32.0572C141.964 33.8783 137.327 36.6729 133.307 40.364C129.301 44.0621 126.009 48.6497 123.55 54.0077C121.085 59.3518 119.838 65.6554 119.838 72.7364C119.838 80.2447 121.19 86.8144 123.865 92.2705C126.541 97.7336 130.099 102.265 134.427 105.746C138.77 109.227 143.708 111.833 149.122 113.493C154.55 115.153 160.076 116 165.546 116C172.221 116 178.391 115.398 183.89 114.214C189.276 113.051 194.641 111.293 199.831 108.989V0H171.724Z">
  </path>
</svg>