<svg width="742" height="92" viewBox="0 0 742 92" fill="currentColor" xmlns="http://www.w3.org/2000/svg"
  class="logoImage">
  <g clip-path="url(#clip0_2289_3314)">
    <path
      d="M26.9815 41.932C26.7116 41.5784 26.3548 41.3004 25.9458 41.1252C25.5369 40.9499 25.0896 40.8832 24.6473 40.9316C24.205 40.9799 23.7827 41.1417 23.4213 41.4013C23.0599 41.6608 22.7716 42.0093 22.5845 42.4129L0.283087 87.0124C0.07938 87.4184 -0.0172002 87.8697 0.00251147 88.3235C0.0222231 88.7773 0.157573 89.2185 0.395716 89.6053C0.633859 89.9921 0.966895 90.3116 1.36322 90.5335C1.75955 90.7554 2.20601 90.8724 2.66025 90.8733H33.7146C34.2173 90.883 34.7117 90.7449 35.1367 90.4762C35.5617 90.2076 35.8985 89.8202 36.1055 89.362C42.7973 75.6221 38.7437 54.504 26.9815 41.932Z">
    </path>
    <path
      d="M43.3469 1.42695C37.7874 9.97892 34.5475 19.8295 33.9453 30.0117C33.343 40.1939 35.3991 50.3576 39.9117 59.5053L54.9579 89.3619C55.1773 89.8056 55.5159 90.1794 55.9357 90.4415C56.3556 90.7035 56.8401 90.8436 57.3351 90.8459H88.3894C88.8247 90.8099 89.2451 90.6708 89.6159 90.44C89.9867 90.2091 90.2971 89.8933 90.5215 89.5185C90.7458 89.1438 90.8775 88.721 90.9058 88.2851C90.9341 87.8493 90.8581 87.413 90.6841 87.0124L47.8814 1.42695C47.6764 0.999605 47.3548 0.638903 46.9536 0.386431C46.5525 0.133959 46.0881 0 45.6141 0C45.1401 0 44.6758 0.133959 44.2746 0.386431C43.8735 0.638903 43.5519 0.999605 43.3469 1.42695Z">
    </path>
    <path
      d="M699.417 48.9669L721.966 90.8734H742V16.0737H726.061V64.3418L720.028 50.3409L701.918 16.0737H676.759V90.8734H692.698V33.8256L699.417 48.9669Z">
    </path>
    <path d="M575.378 16.0737H557.955V90.8734H575.378V16.0737Z">
    </path>
    <path
      d="M537.852 68.7522C537.852 55.6581 530.913 49.5164 511.319 45.2983C500.505 42.9076 497.894 40.5168 497.894 37.0544C497.894 32.7263 501.755 30.8989 508.887 30.8989C517.543 30.8989 526.09 33.5232 534.17 37.1643V20.0582C526.411 16.5257 517.96 14.7746 509.436 14.9332C490.075 14.9332 480.058 23.3558 480.058 37.1368C480.058 48.1287 485.184 56.9359 505.218 60.8106C517.172 63.3112 519.687 65.2485 519.687 69.2331C519.687 73.2177 517.172 75.6084 508.694 75.6084C498.518 75.4225 488.545 72.7276 479.66 67.7629V85.7484C485.692 88.7025 493.662 92 508.516 92C529.457 92 537.77 82.6707 537.77 68.7797">
    </path>
    <path
      d="M465.328 68.7522C465.328 55.6581 458.458 49.5164 438.808 45.2983C427.994 42.9076 425.37 40.5168 425.37 37.0544C425.37 32.7263 429.245 30.8989 436.362 30.8989C445.019 30.8989 453.552 33.5232 461.632 37.1643V20.0582C453.873 16.5257 445.422 14.7746 436.898 14.9332C417.551 14.9332 407.52 23.3558 407.52 37.1368C407.52 48.1287 412.646 56.9359 432.694 60.8106C444.648 63.3112 447.149 65.2485 447.149 69.2331C447.149 73.2177 444.648 75.6084 436.156 75.6084C425.98 75.4225 416.007 72.7276 407.122 67.7629V85.7484C413.168 88.7025 421.138 92 435.978 92C456.932 92 465.232 82.6707 465.232 68.7797">
    </path>
    <path d="M289.816 74.7016V16.0737H272.283V90.8734H308.092L313.725 74.7016H289.816Z">
    </path>
    <path d="M238.426 90.8734V32.2318H259.147V16.0737H201.531V32.2318H220.892V90.8734H238.426Z">
    </path>
    <path
      d="M176.111 16.0737H153.136L127.029 90.8735H147.021L150.732 78.274C159.837 80.9496 169.52 80.9496 178.625 78.274L182.322 90.8735H202.246L176.111 16.0737ZM164.624 64.7952C161.368 64.7999 158.129 64.3372 155.005 63.4212L164.624 30.7754L174.242 63.4212C171.118 64.3363 167.879 64.799 164.624 64.7952Z">
    </path>
    <path
      d="M369.816 16.0737H346.841L320.733 90.8735H340.657L344.368 78.274C353.473 80.9496 363.156 80.9496 372.261 78.274L375.958 90.8735H395.882L369.816 16.0737ZM358.328 64.7952C355.073 64.8011 351.833 64.3383 348.71 63.4212L358.328 30.7754L367.947 63.4212C364.823 64.3385 361.584 64.8013 358.328 64.7952Z">
    </path>
    <path
      d="M638.147 16.0737H615.172L589.064 90.8735H608.989L612.685 78.274C621.79 80.9496 631.473 80.9496 640.579 78.274L644.275 90.8735H664.213L638.147 16.0737ZM626.659 64.7952C623.404 64.799 620.165 64.3363 617.041 63.4212L626.659 30.7754L636.278 63.4212C633.154 64.3363 629.915 64.799 626.659 64.7952Z">
    </path>
  </g>
  <defs>
    <clipPath id="clip0_2289_3314">
      <rect width="742" height="92" fill="white">
      </rect>
    </clipPath>
  </defs>
</svg>