<svg width="726" height="169" viewBox="0 0 726 169" fill="currentColor" xmlns="http://www.w3.org/2000/svg"
  class="logoImage">
  <path
    d="M113.965 101.977C119.741 89.5765 120.877 75.5157 117.167 62.3488C113.457 49.182 105.147 37.7826 93.7471 30.2213C102.906 20.8086 112.826 11.4804 123.294 2.57422C111.081 9.8348 99.49 18.0938 88.6398 27.2667C76.8617 21.1251 63.3122 19.2778 50.32 22.0425C37.3278 24.8072 25.7043 32.0111 17.4472 42.416C9.19022 52.8209 4.81538 65.7771 5.07461 79.0577C5.33385 92.3383 10.211 105.114 18.8678 115.189C7.93556 138.868 6.20498 157.862 15.6599 164.278C26.0011 171.158 48.4565 158.664 62.0901 138.362C62.0901 138.362 41.2387 157.145 29.8 152.839C22.751 150.18 22.751 139.375 28.5337 123.926C39.49 131.964 52.9518 135.835 66.5041 134.845C80.0565 133.855 92.8127 128.068 102.484 118.523L104.51 122.322C129.414 120.296 203.745 118.312 203.745 118.312C203.576 114.809 154.36 118.186 113.965 101.977ZM11.9032 77.8756C11.9122 69.4626 14.0307 61.1861 18.0648 53.8034C22.099 46.4207 27.92 40.1674 34.9953 35.6156C42.0707 31.0639 50.1745 28.359 58.5653 27.7485C66.9562 27.1379 75.3662 28.6412 83.0259 32.1207C58.3525 53.7021 37.7516 79.5355 22.2023 108.393C15.5012 99.6328 11.8807 88.9049 11.9032 77.8756ZM62.1745 128.147C50.8883 128.168 39.9259 124.375 31.0663 117.384C41.0277 94.9282 61.2881 64.7907 88.9352 35.3286C99.3204 41.868 106.955 51.9805 110.399 63.7598C113.843 75.5391 112.86 88.1715 107.634 99.2757C98.9081 95.3596 90.8474 90.1045 83.7435 83.7005L98.8966 112.15C94.2051 117.198 88.5224 121.225 82.2038 123.978C75.8852 126.73 69.0666 128.15 62.1745 128.147Z">
  </path>
  <path
    d="M454.848 72.6417L464.134 60.2744H431.718L439.695 49.6798H472.154L481.482 37.3125H416.733L372.202 96.4055H436.951L446.238 84.0382H413.821L422.389 72.6417H454.848Z">
  </path>
  <path d="M499.8 37.3125L455.269 96.4055H487.601L532.09 37.3125H499.8Z"></path>
  <path
    d="M607.435 37.3125L584.853 67.2811L577.93 37.3125H552.689L508.158 96.4055H529.516L551.887 66.7324L558.767 96.4055H584.262L628.793 37.3125H607.435Z">
  </path>
  <path
    d="M713.042 37.3126H661.124C656.907 37.3076 652.747 38.2855 648.974 40.1684C645.201 42.0514 641.918 44.7877 639.387 48.1604L612.584 83.7428C611.537 85.1121 610.973 86.7891 610.98 88.5124C610.98 90.6097 611.81 92.6217 613.289 94.1087C614.768 95.5957 616.776 96.4366 618.873 96.4478H670.79C675.014 96.456 679.181 95.4799 682.962 93.5969C686.742 91.7139 690.032 88.9759 692.57 85.6L699.028 77.1581H706.542L715.912 64.4953H676.151L663.488 81.168C662.831 82.0473 661.977 82.7609 660.995 83.2519C660.013 83.7429 658.93 83.9977 657.832 83.996H648.673C648.124 83.996 647.598 83.7781 647.21 83.3903C646.822 83.0024 646.604 82.4763 646.604 81.9278C646.601 81.4835 646.75 81.0514 647.027 80.7037L668.131 52.4235C668.786 51.5417 669.639 50.8264 670.622 50.3351C671.605 49.8439 672.689 49.5905 673.787 49.5955H682.947C683.218 49.5955 683.487 49.649 683.738 49.7529C683.989 49.8568 684.217 50.0092 684.409 50.2012C684.601 50.3933 684.754 50.6213 684.857 50.8722C684.961 51.1232 685.015 51.3921 685.015 51.6637C685.003 52.1054 684.856 52.5328 684.593 52.8878L681.132 57.4886H713.38L719.078 49.8909C719.968 48.7173 720.512 47.3179 720.648 45.8511C720.784 44.3844 720.507 42.9088 719.849 41.5912C719.19 40.2737 718.176 39.1668 716.92 38.3957C715.665 37.6247 714.219 37.2202 712.746 37.2281L713.042 37.3126Z">
  </path>
  <path
    d="M390.225 45.2491C390.225 43.1558 389.393 41.1481 387.913 39.6679C386.433 38.1876 384.425 37.356 382.332 37.356H330.414C326.191 37.3478 322.023 38.3239 318.243 40.2069C314.462 42.0899 311.172 44.8279 308.634 48.2038L281.831 83.7862C280.958 84.9641 280.428 86.3611 280.3 87.8221C280.172 89.283 280.451 90.7509 281.107 92.0626C281.763 93.3743 282.77 94.4786 284.015 95.2529C285.261 96.0273 286.696 96.4413 288.163 96.449H340.08C344.304 96.4572 348.471 95.4811 352.252 93.5982C356.032 91.7152 359.322 88.9771 361.86 85.6012L388.663 50.0188C389.692 48.6426 390.24 46.9671 390.225 45.2491ZM354.136 52.9734L333.031 81.2115C332.376 82.0932 331.523 82.8086 330.541 83.2998C329.558 83.7911 328.474 84.0445 327.375 84.0395H318.047C317.667 84.0356 317.294 83.9269 316.972 83.7252C316.649 83.5235 316.388 83.2367 316.218 82.8963C316.048 82.5559 315.975 82.1752 316.007 81.796C316.039 81.4168 316.176 81.0539 316.401 80.7472L337.506 52.4669C338.167 51.5925 339.022 50.8824 340.003 50.3919C340.984 49.9015 342.065 49.6438 343.162 49.6389H352.321C352.87 49.6389 353.396 49.8568 353.784 50.2447C354.171 50.6326 354.389 51.1586 354.389 51.7072C354.378 52.1488 354.23 52.5762 353.967 52.9312L354.136 52.9734Z">
  </path>
  <path
    d="M268.113 68.2942C274.387 66.8716 279.952 63.2664 283.815 58.1218L289.977 49.9754C290.868 48.8017 291.412 47.4024 291.548 45.9356C291.684 44.4689 291.407 42.9933 290.748 41.6757C290.09 40.3582 289.075 39.2513 287.82 38.4802C286.565 37.7091 285.119 37.3047 283.646 37.3126H218.137L173.606 96.4056H241.395C245.618 96.4138 249.786 95.4377 253.566 93.5548C257.347 91.6718 260.637 88.9338 263.175 85.5578L269.464 77.116C270.294 76.0244 270.739 74.6886 270.73 73.3172C270.728 72.3241 270.495 71.3452 270.048 70.4584C269.601 69.5717 268.953 68.8017 268.155 68.2098L268.113 68.2942ZM238.144 75.9763L234.135 81.2947C233.477 82.174 232.623 82.8876 231.641 83.3786C230.66 83.8695 229.576 84.1244 228.479 84.1227H215.267L223.709 72.7262H236.372C236.92 72.7262 237.446 72.9441 237.834 73.332C238.222 73.7199 238.44 74.2459 238.44 74.7945C238.44 75.2382 238.291 75.6692 238.018 76.0185L238.144 75.9763ZM255.45 53.0145L252.031 57.5309C251.367 58.4 250.511 59.1037 249.53 59.587C248.549 60.0702 247.469 60.32 246.375 60.3167H233.164L241.141 49.7221H253.804C254.076 49.7221 254.345 49.7756 254.596 49.8796C254.847 49.9835 255.075 50.1359 255.267 50.3279C255.459 50.52 255.611 50.748 255.715 50.9989C255.819 51.2498 255.872 51.5188 255.872 51.7904C255.861 52.2321 255.713 52.6594 255.45 53.0145Z">
  </path>
</svg>