<svg width="563" height="141" viewBox="0 0 563 141" fill="currentColor" xmlns="http://www.w3.org/2000/svg"
  class="logoImage">
  <g clip-path="url(#clip0_2289_3330)">
    <path fill-rule="evenodd" clip-rule="evenodd"
      d="M0.903554 110.536C-0.473267 108.854 -0.172082 106.379 1.52087 105.017L17.5582 92.1178C18.9571 90.9925 21.0023 91.2467 22.143 92.6338C33.036 105.882 44.5953 112.015 57.3897 112.015C70.0957 112.015 81.3396 105.969 91.7558 92.8678C92.8736 91.4615 94.9138 91.1707 96.3328 92.2709L112.589 104.874C114.306 106.205 114.652 108.674 113.304 110.378C97.903 129.853 79.0469 140.113 57.3897 140.113C35.7953 140.113 16.7709 129.917 0.903554 110.536Z">
    </path>
    <path fill-rule="evenodd" clip-rule="evenodd"
      d="M58.1665 37.822C57.5619 37.2857 56.6532 37.2855 56.0482 37.8213L21.1761 68.7113C19.843 69.8922 17.804 69.7552 16.6403 68.4064L3.03916 52.6422C1.89174 51.3121 2.02899 49.3042 3.34665 48.1436L54.9963 2.64275C56.2037 1.57916 58.0116 1.5794 59.2186 2.6433L110.88 48.1784C112.198 49.3406 112.334 51.3505 111.184 52.6798L97.5494 68.4364C96.3845 69.7827 94.3467 69.9175 93.0151 68.7362L58.1665 37.822Z">
    </path>
    <path
      d="M182.873 116.236C170.513 116.236 160.213 112.223 151.858 104.198C143.504 96.0576 139.384 85.6245 139.384 72.8986C139.384 60.0581 143.619 49.5104 151.973 41.2558C160.442 32.8865 170.742 28.7592 182.988 28.7592C198.094 28.7592 211.484 35.2941 219.266 45.4979L205.648 59.8288C199.124 52.8352 192.029 49.2811 184.361 49.2811C177.837 49.2811 172.459 51.4595 167.995 55.9308C163.646 60.402 161.472 66.0198 161.472 72.784C161.472 79.3189 163.646 84.8219 167.995 89.2934C172.459 93.6498 177.837 95.8283 184.246 95.8283C192.601 95.8283 199.925 92.1594 205.991 84.9367L220.181 98.5798C216.291 103.739 211.026 107.981 204.503 111.306C197.98 114.63 190.77 116.236 182.873 116.236ZM244.192 27.4981V114.974H224.052V27.4981H244.192ZM263.284 46.0711C256.532 46.0711 251.61 41.1412 251.61 34.377C251.61 27.842 256.761 22.9121 263.284 22.9121C269.807 22.9121 274.843 27.842 274.843 34.377C274.843 41.1412 269.807 46.0711 263.284 46.0711ZM273.468 51.6889V114.974H253.211V51.6889H273.468ZM312.243 116.35C302.287 116.35 294.275 113.255 287.981 107.064C281.801 100.873 278.711 92.962 278.711 83.2169C278.711 73.4718 281.801 65.5611 288.095 59.3701C294.389 53.1793 302.515 50.0837 312.586 50.0837C325.748 50.0837 337.307 56.504 342.686 68.5419L326.549 77.0259C323.344 71.6375 318.882 68.886 313.045 68.886C308.81 68.886 305.377 70.2617 302.63 73.0134C299.997 75.7649 298.625 79.2044 298.625 83.2169C298.625 91.5862 304.691 97.7772 312.817 97.7772C318.651 97.7772 324.03 94.567 326.32 89.6373L342.458 99.2676C336.964 109.815 325.634 116.35 312.243 116.35ZM412.703 114.974H388.67L370.016 89.8666L367.041 92.6181V114.974H346.898V27.4981H367.041V70.0325L386.037 51.6889H410.645L383.519 77.1407L412.703 114.974ZM414.055 82.0704V30.2496H435.57V81.7265C435.57 91.2423 441.064 95.8283 448.959 95.8283C456.742 95.8283 462.236 91.0129 462.236 81.7265V30.2496H483.865V82.0704C483.865 107.064 466.584 116.465 448.959 116.465C431.449 116.465 414.055 107.064 414.055 82.0704ZM531.681 50.0837C540.722 50.0837 548.047 53.2939 553.884 59.7142C559.721 66.0198 562.582 73.9305 562.582 83.2169C562.582 92.5035 559.606 100.414 553.77 106.949C547.933 113.369 540.607 116.58 531.795 116.58C524.815 116.58 518.749 114.287 513.827 109.701V140.999H493.57V51.6889H513.484V57.5358C518.406 52.606 524.472 50.0837 531.681 50.0837ZM541.982 83.4463C541.982 75.1916 536.031 68.886 527.79 68.886C519.55 68.886 513.484 75.1916 513.484 83.4463C513.484 87.4588 514.859 90.8984 517.491 93.7646C520.236 96.6307 523.671 98.0065 527.79 98.0065C531.909 98.0065 535.345 96.6307 537.975 93.7646C540.607 90.8984 541.982 87.4588 541.982 83.4463Z">
    </path>
  </g>
  <defs>
    <clipPath id="clip0_2289_3330">
      <rect width="563" height="141" fill="white"></rect>
    </clipPath>
  </defs>
</svg>