<svg width="549" height="99" viewBox="0 0 549 99" fill="currentColor" xmlns="http://www.w3.org/2000/svg"
  class="logoImage">
  <g clip-path="url(#clip0_2289_3311)">
    <path
      d="M110.803 27.3792C90.8588 27.3792 75.2755 42.519 75.2755 62.7869C75.2755 83.0547 90.4651 98.0649 110.803 98.0649C131.14 98.0649 146.594 82.7955 146.594 62.6573C146.594 42.6486 131.404 27.3792 110.803 27.3792ZM110.937 83.4583C99.5799 83.4583 91.2575 74.6376 91.2575 62.7918C91.2575 50.8116 99.4453 41.9958 110.803 41.9958C122.295 41.9958 130.612 50.9461 130.612 62.7918C130.612 74.6376 122.295 83.4583 110.937 83.4583ZM150.95 42.7832H160.857V96.7542H176.704V28.6949H150.95V42.7832ZM35.3927 41.9908C43.7151 41.9908 50.3182 47.1238 52.8249 54.7585H69.5993C66.5593 38.4376 53.089 27.3792 35.5272 27.3792C15.5833 27.3792 0 42.519 0 62.7918C0 83.0646 15.1896 98.0699 35.5272 98.0699C52.6953 98.0699 66.4298 87.0116 69.4697 70.5561H52.8249C50.4478 78.1908 43.8447 83.4583 35.5222 83.4583C24.0303 83.4583 15.977 74.6376 15.977 62.7918C15.982 50.8116 23.9057 41.9908 35.3927 41.9908ZM452.061 56.2087L440.44 54.4993C434.893 53.7119 430.931 51.8681 430.931 47.5225C430.931 42.7832 436.084 40.416 443.081 40.416C450.741 40.416 455.63 43.7051 456.686 49.1022H472.005C470.286 35.4126 459.721 27.3842 443.48 27.3842C426.705 27.3842 415.612 35.9409 415.612 48.0507C415.612 59.6323 422.878 66.35 437.534 68.4531L449.156 70.1624C454.837 70.9498 458.007 73.1924 458.007 77.4034C458.007 82.8005 452.46 85.0381 444.8 85.0381C435.422 85.0381 430.139 81.2207 429.347 75.4299H413.763C415.219 88.7259 425.649 98.0699 444.666 98.0699C461.969 98.0699 473.455 90.1711 473.455 76.611C473.455 64.5012 465.138 58.1821 452.061 56.2087ZM168.78 0.657819C162.97 0.657819 158.609 4.86886 158.609 10.6597C158.609 16.4505 162.965 20.6615 168.78 20.6615C174.591 20.6615 178.952 16.4505 178.952 10.6597C178.952 4.86886 174.591 0.657819 168.78 0.657819ZM401.349 51.9976C401.349 37.2565 392.369 27.3842 373.352 27.3842C355.392 27.3842 345.355 36.4691 343.372 50.4228H359.09C359.882 45.0257 364.108 40.5506 373.088 40.5506C381.146 40.5506 385.108 44.1038 385.108 48.4494C385.108 54.1106 377.842 55.5558 368.862 56.4778C356.712 57.7934 341.657 62.0044 341.657 77.8021C341.657 90.0465 350.772 97.9403 365.299 97.9403C376.656 97.9403 383.788 93.201 387.356 85.6959C387.884 92.4087 392.902 96.7542 399.904 96.7542H409.149V82.6709H401.354V51.9976H401.349ZM385.766 69.1109C385.766 78.1958 377.842 84.9085 368.199 84.9085C362.254 84.9085 357.236 82.4068 357.236 77.1443C357.236 70.4315 365.294 68.5876 372.689 67.8002C379.821 67.1424 383.783 65.5627 385.766 62.5327V69.1109ZM301.64 27.3792C292.789 27.3792 285.394 31.067 280.111 37.2515V0H264.264V96.7542H279.847V87.8039C285.13 94.2525 292.66 98.0699 301.64 98.0699C320.657 98.0699 335.054 83.0646 335.054 62.7918C335.054 42.519 320.393 27.3792 301.64 27.3792ZM299.263 83.4583C287.906 83.4583 279.583 74.6376 279.583 62.7918C279.583 50.9461 288.035 41.9958 299.392 41.9958C310.884 41.9958 318.938 50.8165 318.938 62.7918C318.938 74.6376 310.62 83.4583 299.263 83.4583ZM226.36 27.3792C216.059 27.3792 209.321 31.5903 205.359 37.5156V28.6949H189.641V96.7493H205.489V59.7619C205.489 49.3614 212.092 41.9908 221.865 41.9908C230.979 41.9908 236.655 48.4394 236.655 57.7884V96.7542H252.503V56.6073C252.508 39.4891 243.662 27.3792 226.36 27.3792ZM549 60.5543C549 41.0738 534.737 27.3842 515.586 27.3842C495.248 27.3842 480.323 42.6536 480.323 62.7918C480.323 83.9866 496.305 98.0699 515.85 98.0699C532.36 98.0699 545.302 88.3272 548.601 74.508H532.091C529.714 80.5629 523.903 83.9866 516.109 83.9866C505.938 83.9866 498.278 77.6675 496.564 66.6092H548.995V60.5543H549ZM497.491 55.2867C500.002 45.8081 507.134 41.2034 515.322 41.2034C524.302 41.2034 531.169 46.3364 532.754 55.2867H497.491Z">
    </path>
  </g>
  <defs>
    <clipPath id="clip0_2289_3311">
      <rect width="549" height="98.0699" fill="white"></rect>
    </clipPath>
  </defs>
</svg>