<svg width="527" height="135" viewBox="0 0 527 135" fill="currentColor" xmlns="http://www.w3.org/2000/svg"
  class="logoImage">
  <path
    d="M55.7529 57.6758C55.7529 52.577 53.7275 47.6865 50.1221 44.0811C46.5167 40.4756 41.6262 38.4502 36.5273 38.4502C31.4287 38.4503 26.5389 40.4758 22.9336 44.0811C19.3282 47.6865 17.3027 52.577 17.3027 57.6758C17.3029 62.7744 19.3283 67.6642 22.9336 71.2695C26.5389 74.8748 31.4287 76.9003 36.5273 76.9004C41.6262 76.9004 46.5167 74.8749 50.1221 71.2695C53.7273 67.6642 55.7528 62.7744 55.7529 57.6758ZM73.0439 58.582C72.8118 67.9412 68.9927 76.8676 62.3564 83.5039C55.5062 90.3542 46.2151 94.2031 36.5273 94.2031C26.8398 94.203 17.5494 90.3541 10.6992 83.5039C3.84906 76.6537 0.000127227 67.3634 0 57.6758C0 47.988 3.84895 38.6969 10.6992 31.8467C17.5494 24.9965 26.8398 21.1476 36.5273 21.1475C43.3749 21.1475 50.0236 23.0718 55.7529 26.6182V0H73.0557V57.6758L73.0439 58.582Z">
  </path>
  <path
    d="M80.7454 63.4431V23.0701H98.0481V63.4431C98.0482 67.0121 99.4658 70.435 101.99 72.9587C104.513 75.4824 107.936 76.9 111.505 76.9001C115.074 76.9001 118.498 75.4825 121.022 72.9587C123.545 70.435 124.963 67.0121 124.963 63.4431V23.0701H142.266V63.4431C142.266 71.6011 139.025 79.4246 133.256 85.1931C127.487 90.9618 119.663 94.2029 111.505 94.2029C103.347 94.2028 95.5237 90.9617 89.7551 85.1931C83.9866 79.4245 80.7455 71.6011 80.7454 63.4431Z">
  </path>
  <path
    d="M203.786 57.6748C203.786 52.5762 201.761 47.6864 198.155 44.0811C194.55 40.4757 189.659 38.4502 184.561 38.4502C179.462 38.4503 174.572 40.4758 170.967 44.0811C167.361 47.6864 165.336 52.5761 165.336 57.6748C165.336 62.7736 167.361 67.6641 170.967 71.2695C174.572 74.8748 179.462 76.9003 184.561 76.9004C189.659 76.9004 194.55 74.8749 198.155 71.2695C201.761 67.6641 203.786 62.7736 203.786 57.6748ZM221.089 57.6748C221.089 67.3625 217.24 76.6536 210.39 83.5039C203.539 90.3542 194.248 94.2031 184.561 94.2031C174.873 94.203 165.583 90.354 158.732 83.5039C151.882 76.6536 148.033 67.3625 148.033 57.6748C148.033 47.9872 151.882 38.6969 158.732 31.8467C165.583 24.9965 174.873 21.1476 184.561 21.1475C194.248 21.1475 203.539 24.9964 210.39 31.8467C217.24 38.6968 221.089 47.9872 221.089 57.6748Z">
  </path>
  <path
    d="M228.779 63.4424V0H246.082V63.4424C246.082 66.7566 247.398 69.9358 249.742 72.2793C252.085 74.6227 255.264 75.9394 258.578 75.9395H272.036V93.2422H258.578C250.675 93.2421 243.095 90.102 237.506 84.5137C231.918 78.9253 228.779 71.3454 228.779 63.4424Z">
  </path>
  <path d="M297.989 26.915V94.2031H280.687V26.915H297.989Z"></path>
  <path
    d="M297.989 11.5351C297.989 13.8295 297.078 16.03 295.455 17.6525C293.833 19.2749 291.632 20.1864 289.338 20.1864C287.043 20.1864 284.843 19.2749 283.22 17.6525C281.598 16.03 280.687 13.8295 280.687 11.5351C280.687 9.24062 281.598 7.04013 283.22 5.41769C284.843 3.79526 287.043 2.88379 289.338 2.88379C291.632 2.88379 293.833 3.79526 295.455 5.41769C297.078 7.04013 297.989 9.24062 297.989 11.5351Z">
  </path>
  <path
    d="M351.819 51.9077C351.819 50.2667 351.496 48.6416 350.868 47.1255C350.24 45.6095 349.319 44.2321 348.159 43.0718C346.999 41.9114 345.621 40.9908 344.105 40.3628C342.589 39.7348 340.964 39.4116 339.323 39.4116C337.682 39.4116 336.057 39.7348 334.541 40.3628C333.025 40.9908 331.647 41.9114 330.487 43.0718C329.327 44.2321 328.406 45.6095 327.778 47.1255C327.15 48.6416 326.827 50.2667 326.827 51.9077V94.2026H309.524V51.9077C309.524 47.9945 310.295 44.1197 311.793 40.5044C313.29 36.889 315.485 33.6035 318.252 30.8364C321.019 28.0694 324.304 25.875 327.92 24.3774C331.535 22.8799 335.41 22.1089 339.323 22.1089C343.236 22.1089 347.111 22.88 350.726 24.3774C354.342 25.875 357.627 28.0694 360.394 30.8364C363.161 33.6035 365.356 36.889 366.853 40.5044C368.351 44.1197 369.122 47.9945 369.122 51.9077V94.2026H351.819V51.9077Z">
  </path>
  <path
    d="M430.642 57.6748C430.642 52.5762 428.617 47.6864 425.011 44.0811C421.406 40.4757 416.516 38.4502 411.417 38.4502C406.318 38.4503 401.428 40.4757 397.823 44.0811C394.218 47.6864 392.192 52.5761 392.192 57.6748C392.192 62.7736 394.218 67.6641 397.823 71.2695C401.428 74.8748 406.318 76.9003 411.417 76.9004C416.516 76.9004 421.406 74.8749 425.011 71.2695C428.617 67.6641 430.642 62.7736 430.642 57.6748ZM447.945 95.8652C448.403 103.26 446.603 110.623 442.776 116.975C438.887 123.429 433.097 128.523 426.2 131.558C419.303 134.592 411.636 135.42 404.25 133.927C396.864 132.433 390.121 128.692 384.944 123.216L397.517 111.33C400.242 114.212 403.791 116.181 407.678 116.967C411.566 117.753 415.601 117.318 419.231 115.721C422.861 114.123 425.909 111.442 427.956 108.045C430.003 104.648 430.949 100.701 430.665 96.7451L430.642 96.4355V88.7314C424.913 92.278 418.264 94.2031 411.417 94.2031C401.729 94.203 392.439 90.354 385.589 83.5039C378.738 76.6536 374.889 67.3625 374.889 57.6748C374.89 47.9872 378.738 38.6969 385.589 31.8467C392.439 24.9965 401.729 21.1476 411.417 21.1475C421.104 21.1475 430.396 24.9964 437.246 31.8467C444.096 38.6968 447.945 47.9872 447.945 57.6748V95.8652Z">
  </path>
  <path
    d="M509.465 57.6748C509.465 52.5762 507.44 47.6864 503.834 44.0811C500.229 40.4757 495.339 38.4502 490.24 38.4502C485.141 38.4503 480.251 40.4758 476.646 44.0811C473.041 47.6864 471.015 52.5761 471.015 57.6748C471.015 62.7736 473.041 67.6641 476.646 71.2695C480.251 74.8748 485.141 76.9003 490.24 76.9004C495.339 76.9004 500.229 74.8749 503.834 71.2695C507.44 67.6641 509.465 62.7736 509.465 57.6748ZM526.768 57.6748C526.768 67.3625 522.919 76.6536 516.069 83.5039C509.219 90.3542 499.927 94.2031 490.24 94.2031C480.552 94.203 471.262 90.354 464.412 83.5039C457.561 76.6536 453.712 67.3625 453.712 57.6748C453.713 47.9872 457.561 38.6969 464.412 31.8467C471.262 24.9965 480.552 21.1476 490.24 21.1475C499.927 21.1475 509.219 24.9964 516.069 31.8467C522.919 38.6968 526.768 47.9872 526.768 57.6748Z">
  </path>
</svg>