<svg width="464" height="157" viewBox="0 0 464 157" fill="currentColor" xmlns="http://www.w3.org/2000/svg"
  class="logoImage">
  <path
    d="M197.456 80.5137C197.456 102.306 180.414 118.364 159.5 118.364C138.586 118.364 121.544 102.306 121.544 80.5137C121.544 58.5679 138.586 42.6631 159.5 42.6631C180.414 42.6631 197.456 58.5679 197.456 80.5137ZM180.841 80.5137C180.841 66.8957 170.963 57.5781 159.5 57.5781C148.036 57.5781 138.159 66.8957 138.159 80.5137C138.159 93.9953 148.036 103.449 159.5 103.449C170.963 103.449 180.841 93.9782 180.841 80.5137Z">
  </path>
  <path
    d="M279.338 80.5137C279.338 102.306 262.297 118.364 241.382 118.364C220.468 118.364 203.427 102.306 203.427 80.5137C203.427 58.5849 220.468 42.6631 241.382 42.6631C262.297 42.6631 279.338 58.5679 279.338 80.5137ZM262.723 80.5137C262.723 66.8957 252.846 57.5781 241.382 57.5781C229.919 57.5781 220.042 66.8957 220.042 80.5137C220.042 93.9953 229.919 103.449 241.382 103.449C252.846 103.449 262.723 93.9782 262.723 80.5137Z">
  </path>
  <path
    d="M357.809 44.9498V112.904C357.809 140.856 341.33 152.273 321.849 152.273C303.511 152.273 292.473 140.003 288.311 129.969L302.777 123.945C305.353 130.105 311.665 137.375 321.832 137.375C334.302 137.375 342.029 129.679 342.029 115.19V109.746H341.449C337.731 114.337 330.566 118.347 321.525 118.347C302.606 118.347 285.275 101.862 285.275 80.6503C285.275 59.2846 302.606 42.6631 321.525 42.6631C330.549 42.6631 337.713 46.6734 341.449 51.1274H342.029V44.9669H357.809V44.9498ZM343.206 80.6503C343.206 67.3223 334.319 57.5781 323.009 57.5781C311.545 57.5781 301.941 67.3223 301.941 80.6503C301.941 93.8417 311.545 103.449 323.009 103.449C334.319 103.449 343.206 93.8417 343.206 80.6503Z">
  </path>
  <path d="M383.824 5.11963V116.044H367.618V5.11963H383.824Z"></path>
  <path
    d="M446.975 92.9713L459.872 101.572C455.709 107.733 445.679 118.347 428.347 118.347C406.853 118.347 390.801 101.726 390.801 80.4966C390.801 57.9876 406.989 42.646 426.488 42.646C446.122 42.646 455.726 58.2777 458.865 66.725L460.588 71.0255L410.009 91.9815C413.881 99.5756 419.903 103.449 428.347 103.449C436.808 103.449 442.676 99.2855 446.975 92.9713ZM407.279 79.3533L441.09 65.3086C439.231 60.5815 433.635 57.288 427.051 57.288C418.606 57.288 406.853 64.7455 407.279 79.3533Z">
  </path>
  <path
    d="M60.2006 70.667V54.6086H114.294C114.823 57.4073 115.096 60.718 115.096 64.3017C115.096 76.3497 111.804 91.2477 101.193 101.862C90.8724 112.613 77.6859 118.347 60.2177 118.347C27.84 118.347 0.614136 91.9644 0.614136 59.5746C0.614136 27.1848 27.84 0.802002 60.2177 0.802002C78.1294 0.802002 90.8894 7.83287 100.476 16.9969L89.1494 28.3282C82.2747 21.8775 72.9606 16.8604 60.2006 16.8604C36.5571 16.8604 18.0653 35.9222 18.0653 59.5746C18.0653 83.227 36.5571 102.289 60.2006 102.289C75.5365 102.289 84.2706 96.1283 89.8659 90.5309C94.4035 85.9916 97.3888 79.5068 98.5659 70.6499L60.2006 70.667Z">
  </path>
</svg>