<svg width="418" height="160" viewBox="0 0 418 160" fill="currentColor" xmlns="http://www.w3.org/2000/svg"
  class="logoImage">
  <g clip-path="url(#clip0_2289_3313)">
    <path
      d="M371.166 23.2918C345.37 23.2918 324.332 44.3295 324.332 70.3763C324.332 96.2978 345.37 117.461 371.166 117.461C396.962 117.461 418 96.2978 418 70.3763C418 44.3295 396.962 23.2918 371.166 23.2918ZM371.166 95.0455C357.516 95.0455 346.497 83.9005 346.497 70.251C346.497 56.6016 357.516 45.4566 371.166 45.4566C384.69 45.4566 395.835 56.6016 395.835 70.251C395.835 83.9005 384.69 95.0455 371.166 95.0455ZM233.168 60.734L225.029 56.6016C221.522 54.8484 219.268 53.4709 218.392 52.4691C217.515 51.5926 217.014 50.3403 217.014 49.2133C217.014 47.5854 217.766 46.3331 219.143 45.2061C220.521 44.0791 222.524 43.5782 225.029 43.5782C229.662 43.5782 234.671 46.3331 240.306 51.9682L254.081 38.0683C250.7 33.435 246.192 29.6783 241.058 27.0485C236.049 24.544 230.413 23.1666 224.778 23.2918C216.388 23.2918 209.376 25.7963 203.991 30.8053C198.606 35.8143 195.851 41.825 195.851 48.9628C195.851 59.8574 202.989 68.9988 217.39 76.2618L224.904 80.0186C231.415 83.2744 234.671 86.6555 234.671 90.1618C234.671 92.0401 233.794 93.6681 232.041 95.1708C230.288 96.5482 227.909 97.2996 224.904 97.2996C222.149 97.2996 219.018 96.2978 215.512 94.4194C212.005 92.541 208.875 90.0366 206.37 87.0312L192.596 102.058C200.359 112.201 210.753 117.336 223.651 117.336C233.419 117.336 241.183 114.706 246.943 109.321C252.703 104.062 255.709 97.4248 255.709 89.4104C255.709 83.3996 254.081 78.2654 250.95 73.7573C247.694 69.3745 241.809 65.1168 233.168 60.734ZM94.169 107.067V25.1702H71.879V30.68C64.3655 25.7963 55.5998 23.2918 46.7088 23.2918C21.0377 23.2918 0 44.3295 0 70.251C0 96.1726 21.0377 117.336 46.834 117.336C55.5998 117.336 64.2403 114.831 71.7537 110.198C71.7537 110.949 71.7537 111.575 71.7537 111.951C71.7537 125.6 60.734 136.745 47.0845 136.745C42.4512 136.745 37.9431 135.368 34.0611 132.989L23.0413 152.273C30.3044 156.656 38.5692 159.035 47.0845 159.035C72.8808 159.035 94.169 137.872 94.169 111.951C94.169 110.949 94.2942 108.069 94.169 107.067ZM46.834 95.0455C33.3098 95.0455 22.1648 83.9005 22.1648 70.251C22.1648 56.6016 33.1845 45.4566 46.834 45.4566C60.4835 45.4566 71.5033 56.6016 71.5033 70.251C71.5033 83.9005 60.3583 95.0455 46.834 95.0455ZM182.703 25.0449H160.413V69.7502C160.413 76.1366 160.413 87.0312 155.78 91.7897C153.525 94.0437 151.146 96.0473 146.012 96.0473C140.878 96.0473 138.373 94.0437 136.119 91.7897C131.486 87.1564 131.486 76.1366 131.486 69.7502V25.0449H109.196V69.6249C109.071 78.8915 109.071 95.9221 120.216 107.192C126.727 113.829 134.617 117.21 145.887 117.21C157.157 117.21 165.046 113.829 171.558 107.192C182.703 95.9221 182.703 78.7663 182.578 69.6249L182.703 25.0449ZM309.305 91.0383C307.552 92.4158 303.169 95.4212 298.285 94.7951C294.278 94.2942 291.022 91.2888 290.521 81.396V44.2043H316.818V25.0449H290.521V0H268.231V4.88376V78.3906C268.231 90.0365 271.111 117.21 298.285 117.21C311.935 116.96 320.325 109.572 323.831 106.566L324.332 106.191L310.933 89.6609C310.808 89.9113 309.931 90.6627 309.305 91.0383Z">
    </path>
  </g>
  <defs>
    <clipPath id="clip0_2289_3313">
      <rect width="418" height="159.035"></rect>
    </clipPath>
  </defs>
</svg>