<svg width="587" height="126" viewBox="0 0 587 126" fill="currentColor" xmlns="http://www.w3.org/2000/svg"
  class="logoImage">
  <g clip-path="url(#clip0_2289_3310)">
    <path
      d="M243.861 25.0115V100.046H230.834V41.1646H230.66L207.386 100.046H198.701L174.906 41.1646H174.732V100.046H162.748V25.0115H181.506L203.044 80.5923H203.391L226.144 25.0115H243.861ZM254.63 30.7432C254.63 28.6589 255.324 26.922 256.888 25.5325C258.451 24.143 260.188 23.4482 262.272 23.4482C264.53 23.4482 266.441 24.143 267.83 25.5325C269.22 26.922 270.088 28.6589 270.088 30.7432C270.088 32.8275 269.393 34.5644 267.83 35.9539C266.267 37.3434 264.53 38.0382 262.272 38.0382C260.014 38.0382 258.277 37.3434 256.888 35.9539C255.498 34.3907 254.63 32.6538 254.63 30.7432ZM268.699 46.2016V100.046H256.019V46.2016H268.699ZM307.084 90.84C308.995 90.84 311.079 90.4926 313.337 89.4505C315.595 88.582 317.679 87.3662 319.59 85.9767V97.7876C317.505 99.0034 315.247 99.8719 312.642 100.393C310.037 100.914 307.258 101.261 304.131 101.261C296.142 101.261 289.715 98.8297 284.852 93.7927C279.815 88.7557 277.383 82.3292 277.383 74.6868C277.383 66.0023 279.988 58.881 285.025 53.3229C290.062 47.7649 297.184 44.9858 306.563 44.9858C308.995 44.9858 311.426 45.3332 313.684 45.8543C316.116 46.3753 318.026 47.2438 319.416 47.9385V60.0968C317.505 58.7073 315.421 57.4915 313.511 56.7967C311.426 56.102 309.342 55.5809 307.258 55.5809C302.221 55.5809 298.226 57.1441 295.099 60.4442C291.973 63.7443 290.583 68.0866 290.583 73.6447C290.583 79.0291 292.147 83.3713 295.099 86.3241C298.052 89.2768 302.047 90.84 307.084 90.84ZM355.544 45.3332C356.586 45.3332 357.454 45.3332 358.323 45.5069C359.191 45.6806 359.886 45.8543 360.407 46.028V58.881C359.712 58.3599 358.844 57.8389 357.454 57.4915C356.065 57.1441 354.675 56.7967 352.765 56.7967C349.638 56.7967 347.033 58.1863 344.948 60.7916C342.864 63.397 341.648 67.3918 341.648 72.9499V100.046H328.969V46.2016H341.648V54.7125H341.822C343.038 51.7597 344.775 49.5018 347.033 47.7649C349.464 46.2016 352.243 45.3332 355.544 45.3332ZM361.102 73.9921C361.102 65.1339 363.707 58.0126 368.57 52.8019C373.607 47.5912 380.555 44.9858 389.413 44.9858C397.75 44.9858 404.35 47.4175 409.04 52.4545C413.73 57.4915 416.161 64.2654 416.161 72.7762C416.161 81.4607 413.556 88.4083 408.693 93.619C403.656 98.8297 396.882 101.435 388.197 101.435C379.86 101.435 373.26 99.0034 368.397 94.1401C363.533 89.1031 361.102 82.3292 361.102 73.9921ZM374.302 73.471C374.302 79.0291 375.518 83.3713 378.123 86.3241C380.729 89.2768 384.376 90.84 389.066 90.84C393.582 90.84 397.229 89.4505 399.661 86.3241C402.093 83.3713 403.308 79.0291 403.308 73.1236C403.308 67.3918 402.093 63.0496 399.661 59.9232C397.229 56.9704 393.582 55.4072 389.239 55.4072C384.55 55.4072 381.076 56.9704 378.471 60.0968C375.518 63.397 374.302 67.7392 374.302 73.471ZM435.094 60.4442C435.094 62.1811 435.615 63.7443 436.831 64.7865C438.046 65.8286 440.478 67.0444 444.473 68.6077C449.51 70.6919 453.157 72.9499 455.068 75.3816C457.152 77.9869 458.194 80.9397 458.194 84.5872C458.194 89.6242 456.284 93.619 452.289 96.7455C448.468 99.8719 443.083 101.261 436.483 101.261C434.225 101.261 431.794 100.914 429.014 100.393C426.235 99.8719 423.977 99.1771 422.067 98.3087V85.803C424.325 87.3662 426.93 88.7557 429.536 89.6242C432.141 90.4926 434.573 91.0137 436.831 91.0137C439.61 91.0137 441.868 90.6663 443.083 89.7979C444.473 88.9294 445.168 87.7136 445.168 85.803C445.168 84.0661 444.473 82.6766 443.083 81.287C441.694 80.0712 438.915 78.6817 435.094 77.1185C430.404 75.2079 427.104 72.9499 425.193 70.5182C423.283 68.0866 422.241 64.9602 422.241 61.139C422.241 56.2757 424.151 52.2808 427.972 49.1544C431.794 46.0279 436.831 44.4647 442.91 44.4647C444.82 44.4647 446.905 44.6384 449.163 45.1595C451.421 45.6806 453.505 46.2016 455.068 46.7227V59.0547C453.331 58.0126 451.421 56.9704 449.163 56.102C446.905 55.2335 444.647 54.8861 442.562 54.8861C440.131 54.8861 438.22 55.4072 437.004 56.2757C435.788 57.4915 435.094 58.7073 435.094 60.4442ZM463.579 73.9921C463.579 65.1339 466.184 58.0126 471.047 52.8019C476.085 47.5912 483.032 44.9858 491.89 44.9858C500.227 44.9858 506.828 47.4175 511.517 52.4545C516.207 57.4915 518.639 64.2654 518.639 72.7762C518.639 81.4607 516.033 88.4083 511.17 93.619C506.133 98.8297 499.359 101.435 490.674 101.435C482.337 101.435 475.737 99.0034 470.874 94.1401C466.184 89.1031 463.579 82.3292 463.579 73.9921ZM476.779 73.471C476.779 79.0291 477.995 83.3713 480.6 86.3241C483.206 89.2768 486.853 90.84 491.543 90.84C496.059 90.84 499.706 89.4505 502.138 86.3241C504.57 83.3713 505.786 79.0291 505.786 73.1236C505.786 67.3918 504.57 63.0496 502.138 59.9232C499.706 56.9704 496.059 55.4072 491.717 55.4072C487.027 55.4072 483.553 56.9704 480.948 60.0968C478.169 63.397 476.779 67.7392 476.779 73.471ZM560.845 56.623H541.913V100.046H529.06V56.623H520.028V46.2016H529.06V38.733C529.06 33.1749 530.971 28.4853 534.618 24.8378C538.266 21.1903 542.955 19.4534 548.687 19.4534C550.25 19.4534 551.64 19.6271 552.855 19.6271C554.071 19.6271 555.113 19.9744 555.982 20.3218V31.2643C555.635 31.0906 554.766 30.7432 553.724 30.3958C552.682 30.0485 551.466 29.8748 550.076 29.8748C547.471 29.8748 545.387 30.7432 543.997 32.3064C542.608 33.8696 541.913 36.475 541.913 39.6014V46.028H560.845V33.8696L573.525 30.0485V46.028H586.378V56.4494H573.525V81.6344C573.525 84.9345 574.219 87.1925 575.262 88.582C576.477 89.9715 578.388 90.6663 580.993 90.6663C581.688 90.6663 582.557 90.4926 583.599 90.1452C584.641 89.7979 585.509 89.4505 586.204 88.9294V99.3508C585.336 99.8719 584.12 100.219 582.209 100.567C580.299 100.914 578.562 101.088 576.651 101.088C571.267 101.088 567.272 99.6982 564.666 96.9191C562.061 94.1401 560.672 89.7979 560.672 84.0661L560.845 56.623Z">
    </path>
    <path d="M59.402 0H0V59.402H59.402V0Z"></path>
    <path d="M125.057 0H65.6549V59.402H125.057V0Z"></path>
    <path d="M59.402 65.6548H0V125.057H59.402V65.6548Z"></path>
    <path d="M125.057 65.6548H65.6549V125.057H125.057V65.6548Z"></path>
  </g>
  <defs>
    <clipPath id="clip0_2289_3310">
      <rect width="586.378" height="125.057" fill="white"></rect>
    </clipPath>
  </defs>
</svg>