<svg width="422" height="142" viewBox="0 0 422 142" fill="currentColor" xmlns="http://www.w3.org/2000/svg"
  class="logoImage">
  <g clip-path="url(#clip0_2289_3336)">
    <path
      d="M422 0V106.048H397.936V0H422ZM389.078 35.7907V106.242H367.688V100.169C364.982 102.818 361.889 104.82 358.475 106.242C355.028 107.727 351.291 108.503 347.296 108.503C342.271 108.503 337.6 107.566 333.316 105.692C329.031 103.722 325.294 101.041 322.137 97.6815C318.948 94.2898 316.436 90.3489 314.567 85.8589C312.795 81.272 311.926 76.3298 311.926 71.0646C311.926 65.7993 312.795 60.9217 314.567 56.4317C316.436 51.8448 318.948 47.8394 322.137 44.4476C325.287 41.0817 329.091 38.3992 333.316 36.5659C337.6 34.5955 342.271 33.5941 347.296 33.5941C351.291 33.5941 355.028 34.3371 358.475 35.8553C361.921 37.2766 365.014 39.2793 367.688 41.9281V35.8553H389.078V35.7907ZM351.162 87.0542C355.543 87.0542 359.119 85.5683 361.921 82.5319C364.821 79.5278 366.27 75.6838 366.27 71C366.27 66.3162 364.821 62.4399 361.921 59.4681C359.119 56.4641 355.511 54.9459 351.162 54.9459C346.813 54.9459 343.141 56.4318 340.242 59.4681C337.439 62.4722 336.054 66.3162 336.054 71C336.054 75.6838 337.471 79.5601 340.242 82.5319C343.141 85.5359 346.781 87.0542 351.162 87.0542ZM277.586 0C283.932 0 289.344 0.904459 293.822 2.68108C298.299 4.45769 302.068 6.94495 305.161 10.1429C308.318 13.4377 310.798 17.1847 312.57 21.4163C314.342 25.6479 315.211 30.2025 315.211 35.0801C315.211 39.9577 314.342 44.5123 312.57 48.7439C310.831 52.9364 308.317 56.7614 305.161 60.0173C302.1 63.2152 298.299 65.7025 293.822 67.4791C289.344 69.2557 283.932 70.1602 277.586 70.1602H265.989V106.209H241.506V0H277.586ZM274.075 48.3239C277.36 48.3239 279.841 48.0009 281.645 47.3226C283.513 46.5796 285.059 45.6105 286.251 44.5123C288.764 42.1542 290.02 39.0209 290.02 35.0801C290.02 31.1392 288.764 28.0059 286.251 25.6478C285.027 24.5173 283.513 23.6128 281.645 22.9668C279.873 22.2238 277.36 21.8362 274.075 21.8362H265.957V48.3239H274.075ZM151.308 35.7907H177.884L195.924 69.5787H196.214L212.289 35.7907H236.9L184.166 142H159.684L183.747 93.4176L151.308 35.7907ZM146.573 35.7907V106.242H125.183V100.169C122.477 102.818 119.384 104.82 115.969 106.242C112.523 107.727 108.786 108.503 104.791 108.503C99.766 108.503 95.095 107.566 90.8105 105.692C86.5261 103.722 82.7893 101.041 79.6323 97.6815C76.4754 94.2898 73.9305 90.3489 72.0621 85.8589C70.2904 81.272 69.4206 76.3298 69.4206 71.0646C69.4206 65.7993 70.2904 60.9217 72.0621 56.4317C73.9305 51.8448 76.4432 47.8394 79.6323 44.4476C82.7758 41.0747 86.5818 38.3911 90.8105 36.5659C95.095 34.5955 99.766 33.5941 104.791 33.5941C108.786 33.5941 112.523 34.3371 115.969 35.8553C119.416 37.2766 122.509 39.2793 125.183 41.9281V35.8553H146.573V35.7907ZM108.657 87.0542C113.038 87.0542 116.614 85.5683 119.449 82.5319C122.348 79.5278 123.797 75.6838 123.797 71C123.797 66.3162 122.348 62.4399 119.449 59.4681C116.646 56.4641 113.038 54.9459 108.657 54.9459C104.276 54.9459 100.636 56.4318 97.7365 59.4681C94.9339 62.4722 93.5487 66.3162 93.5487 71C93.5487 75.6838 94.9661 79.5601 97.7365 82.5319C100.636 85.5359 104.276 87.0542 108.657 87.0542ZM36.0794 0C42.4255 0 47.8374 0.904459 52.3151 2.68108C56.7928 4.45769 60.5618 6.94495 63.6544 10.1429C66.8113 13.4377 69.2918 17.1847 71.0635 21.4163C72.8353 25.6479 73.705 30.2025 73.705 35.0801C73.705 39.9577 72.8353 44.5123 71.0635 48.7439C69.3246 52.9364 66.8107 56.7614 63.6544 60.0173C60.594 63.2152 56.7928 65.7025 52.3151 67.4791C47.8374 69.2557 42.4255 70.1602 36.0794 70.1602H24.4824V106.209H0V0H36.0794ZM32.6003 48.3239C35.8861 48.3239 38.3666 48.0009 40.1705 47.3226C42.0389 46.5796 43.5852 45.6105 44.7771 44.5123C47.2898 42.1542 48.5461 39.0209 48.5461 35.0801C48.5461 31.1392 47.2898 28.0059 44.7771 25.6478C43.553 24.5173 42.0389 23.6128 40.1705 22.9668C38.3988 22.2238 35.8861 21.8362 32.6003 21.8362H24.4824V48.3239H32.6003Z">
    </path>
  </g>
  <defs>
    <clipPath id="clip0_2289_3336">
      <rect width="422" height="142" fill="white"></rect>
    </clipPath>
  </defs>
</svg>