<svg width="383" height="144" viewBox="0 0 383 144" fill="currentColor"
  xmlns="http://www.w3.org/2000/svg" class="logoImage">
  <path fill-rule="evenodd" clip-rule="evenodd"
    d="M200.951 49.346C197.744 46.6494 192.272 45.3026 184.531 45.3026H167.072V99.259H180.127V82.3484H185.975C193.073 82.3484 198.278 80.7862 201.591 77.6589C205.322 74.1554 207.199 69.4902 207.199 63.6662C207.199 57.6269 205.115 52.8525 200.951 49.346ZM185.651 70.1393H180.127V57.5117H185.089C191.126 57.5117 194.144 59.6289 194.144 63.8634C194.144 68.0433 191.311 70.1393 185.651 70.1393ZM229.539 45.2996H215.926V99.256H245.319V87.0439H229.539V45.2996ZM271.991 45.2996L250.606 99.256H265.263L268.065 91.4119H286.647L289.211 99.256H304.031L282.798 45.2996H271.991ZM271.83 80.4889L277.438 62.0465L282.959 80.4889H271.83Z">
  </path>
  <path fill-rule="evenodd" clip-rule="evenodd"
    d="M310.832 99.2558H324.448V45.2994H310.832V99.2558ZM377.313 55.4124C375.593 52.9185 373.384 50.7999 370.821 49.185C366.711 46.5946 361.103 45.3024 354.002 45.3024H336.063V99.2558H357.047C364.63 99.2558 370.715 96.7775 375.308 91.8151C379.9 86.8556 382.193 80.2733 382.193 72.0743C382.193 65.5527 380.567 59.9987 377.313 55.4124ZM355.524 87.0406H349.679V57.5145H355.606C359.771 57.5145 362.971 58.8188 365.216 61.4183C367.46 64.0179 368.583 67.7064 368.583 72.4808C368.583 82.1873 364.23 87.0406 355.524 87.0406ZM56.5317 0L12.4062 11.5569L0.245698 55.9311L15.4547 71.5465L0 86.9041L11.4447 131.472L55.379 143.748L70.8367 128.388L86.0457 144L130.171 132.443L142.329 88.0659L127.123 72.4565L142.577 57.0989L131.133 12.5275L87.1923 0.251764L71.7406 15.6094L56.5317 0ZM29.4534 20.0926L52.6976 14.0017L62.8622 24.4363L48.0384 39.166L29.4534 20.0926ZM80.4796 24.5758L90.808 14.3142L113.952 20.7812L95.0637 39.5482L80.4796 24.5758ZM14.1716 52.2881L20.5749 28.9165L39.1539 47.9899L24.3332 62.7196L14.1716 52.285V52.2881ZM103.797 48.5177L122.685 29.7446L128.709 53.2223L118.384 63.487L103.797 48.5177ZM56.7743 48.1325L71.5981 33.4027L86.1792 48.3751L71.3585 63.1048L56.7743 48.1325ZM33.0721 71.6861L47.8928 56.9563L62.483 71.9287L47.6562 86.6584L33.0721 71.6861ZM80.0974 72.0713L94.9181 57.3416L109.502 72.3139L94.6785 87.0437L80.0974 72.0713ZM13.8622 90.7777L24.1936 80.5099L38.7747 95.4854L19.8924 114.249L13.8622 90.7777ZM56.3921 95.6249L71.2159 80.8952L85.8 95.8675L70.9793 110.597L56.3921 95.6249ZM103.414 96.0131L118.238 81.2834L128.403 91.715L122.002 115.087L103.414 96.0131ZM28.6253 123.222L47.5106 104.449L62.1008 119.421L51.7694 129.689L28.6253 123.222ZM79.7152 119.564L94.5359 104.834L113.118 123.91L89.8768 129.998L79.7152 119.564Z">
  </path>
</svg>