<svg width="418" height="111" viewBox="0 0 418 111" fill="currentColor" xmlns="http://www.w3.org/2000/svg"
  class="logoImage">
  <g clip-path="url(#clip0_2289_3312)">
    <path
      d="M121.875 30.6127C99.7157 30.6127 81.5855 48.5799 81.5855 70.5397C81.5855 92.4995 99.7157 110.467 121.875 110.467C144.034 110.467 162.164 92.4995 162.164 70.5397C162.164 48.5799 144.034 30.6127 121.875 30.6127ZM141.516 70.0406C141.516 81.0205 132.954 90.0041 122.378 90.0041C111.802 90.0041 103.241 81.0205 103.241 70.0406C103.241 59.0607 111.802 50.0771 122.378 50.0771C132.954 50.0771 141.516 59.0607 141.516 70.0406ZM262.887 32.11C262.383 31.6109 261.88 31.6109 261.376 31.6109H245.26C244.253 31.6109 243.246 32.6091 243.246 33.6073V105.975C243.246 106.474 243.246 106.973 243.749 107.472C244.253 107.971 244.757 107.971 245.26 107.971H261.376C262.383 107.971 263.39 106.973 263.39 105.975V33.6073C263.39 33.1082 263.39 32.6091 262.887 32.11ZM253.318 22.1283C259.361 22.1283 264.398 17.1374 264.398 11.1484C264.901 5.15932 259.361 0.168457 253.318 0.168457C247.275 0.168457 242.239 5.15932 242.239 11.1484C242.239 17.6365 247.275 22.1283 253.318 22.1283ZM231.663 1.66572H172.74C171.733 1.66572 170.725 2.66389 170.725 3.66206V105.975C170.725 106.474 170.725 106.973 171.229 107.472C171.733 107.971 172.236 107.971 172.74 107.971H188.855C189.863 107.971 190.87 106.973 190.87 105.975V64.5506H227.13C227.634 64.5506 228.137 64.5506 228.641 64.0516C229.145 63.5525 229.145 63.0534 229.145 62.5543V47.5817C229.145 46.5835 228.137 45.5853 227.13 45.5853H190.87V20.631H231.663C232.166 20.631 232.67 20.631 233.173 20.1319C233.677 19.6328 233.677 19.1337 233.677 18.6347V3.66206C233.677 2.66389 232.67 1.66572 231.663 1.66572ZM43.8145 46.0844C27.6988 39.0972 22.6627 36.1027 22.6627 30.1137C22.6627 22.1283 30.2169 19.6328 37.2675 19.6328C44.8217 19.6328 52.8795 23.6255 52.8795 34.6054C52.8795 35.6036 53.3831 36.1027 54.3904 36.1027H72.0169C72.5205 35.6036 73.0241 35.1045 73.0241 34.6054C73.0241 14.642 58.4193 0.168457 37.2675 0.168457C16.1157 0.168457 2.51807 12.1465 2.51807 30.1137C2.51807 51.5744 18.6337 58.0625 34.2458 64.0516L35.253 64.5506C49.8578 70.0406 54.894 72.536 54.894 79.5232C54.894 89.0059 44.8217 90.5031 39.2819 90.5031C28.706 90.5031 20.6482 83.0168 20.6482 73.0351V72.0369C20.6482 71.0388 20.1446 70.5397 19.1374 70.5397H1.51084C1.00723 70.5397 0 71.0388 0 72.0369V73.5342C0 95.494 16.1157 110.467 38.7783 110.467C60.4337 110.467 75.0386 97.9894 75.0386 80.0223C75.5422 61.5561 65.9735 55.068 43.8145 46.0844ZM418 104.977C418 107.971 415.986 109.968 412.964 109.968C409.942 109.968 407.928 107.971 407.928 104.977C407.928 101.982 409.942 99.9858 412.964 99.9858C415.986 99.9858 418 101.982 418 104.977ZM408.935 104.977C408.935 107.472 410.446 108.969 412.964 108.969C415.482 108.969 416.993 107.472 416.993 104.977C416.993 102.481 415.482 100.984 412.964 100.984C410.446 100.984 408.935 102.481 408.935 104.977ZM414.978 103.978C414.978 104.478 414.475 104.977 413.971 105.476L414.978 107.472H413.467L412.46 105.476H411.957V107.472H410.949V102.481H412.964C413.971 102.481 414.978 102.98 414.978 103.978ZM412.46 103.479V104.977H412.964C413.467 104.977 413.971 104.478 413.971 104.478C413.971 103.978 413.467 103.978 412.964 103.978H412.46V103.479ZM391.812 4.66024C398.863 4.66024 404.402 10.1502 404.402 17.1374C404.402 24.1246 398.863 29.6146 391.812 29.6146C384.761 29.6146 379.222 24.1246 379.222 17.1374C379.222 10.1502 384.761 4.66024 391.812 4.66024ZM391.812 0.168457C382.243 0.168457 374.186 8.15384 374.186 17.6365C374.186 27.1191 382.243 35.1045 391.812 35.1045C401.381 35.1045 409.439 27.1191 409.439 17.6365C409.439 8.15384 401.381 0.168457 391.812 0.168457Z">
    </path>
    <path
      d="M400.204 70.3703C408.756 65.7614 411.919 55.1546 407.268 46.6794C402.617 38.2043 391.914 35.07 383.362 39.679C374.81 44.2879 371.647 54.8947 376.298 63.3698C380.949 71.845 391.652 74.9792 400.204 70.3703Z">
    </path>
    <path
      d="M400.179 107.803C408.731 103.194 411.893 92.5875 407.243 84.1123C402.592 75.6371 391.889 72.5029 383.337 77.1118C374.785 81.7208 371.622 92.3275 376.273 100.803C380.924 109.278 391.627 112.412 400.179 107.803Z">
    </path>
    <path
      d="M354.041 42.5907C357.566 42.5907 360.588 44.088 363.106 46.0843C365.624 48.5798 366.631 51.5743 366.631 55.0679C366.631 62.0551 361.092 67.5451 354.041 67.5451C350.516 67.5451 347.494 66.0478 344.976 64.0515C342.458 61.556 341.451 58.5615 341.451 55.0679C340.947 48.0807 346.99 42.5907 354.041 42.5907ZM354.041 37.5999C344.472 37.5999 336.415 45.5852 336.415 55.0679C336.415 64.5505 344.472 72.5359 354.041 72.5359C363.61 72.5359 371.668 64.5505 371.668 55.0679C371.668 45.5852 363.61 37.5999 354.041 37.5999Z">
    </path>
    <path
      d="M332.269 62.0037C336.211 53.1829 332.192 42.865 323.291 38.958C314.39 35.051 303.979 39.0344 300.036 47.8552C296.094 56.676 300.113 66.9939 309.014 70.9009C317.915 74.8079 328.327 70.8245 332.269 62.0037Z">
    </path>
    <path
      d="M370.116 24.5879C374.058 15.7671 370.039 5.44922 361.138 1.54222C352.237 -2.36477 341.826 1.61864 337.883 10.4394C333.941 19.2602 337.96 29.5781 346.861 33.4851C355.762 37.3921 366.174 33.4087 370.116 24.5879Z">
    </path>
    <path
      d="M332.315 24.5423C336.257 15.7215 332.238 5.40358 323.337 1.49658C314.436 -2.41041 304.025 1.57299 300.082 10.3938C296.14 19.2146 300.159 29.5325 309.06 33.4395C317.961 37.3465 328.373 33.363 332.315 24.5423Z">
    </path>
    <path
      d="M370.024 99.5105C373.966 90.6897 369.947 80.3718 361.046 76.4648C352.145 72.5578 341.734 76.5413 337.791 85.362C333.849 94.1828 337.868 104.501 346.769 108.408C355.67 112.315 366.082 108.331 370.024 99.5105Z">
    </path>
    <path
      d="M316.27 80.0224C319.795 80.0224 322.817 81.5196 325.335 83.516C327.853 86.0114 328.86 89.0059 328.86 92.4995C328.86 99.4867 323.321 104.977 316.27 104.977C309.219 104.977 303.68 99.4867 303.68 92.4995C303.176 85.5123 309.219 80.0224 316.27 80.0224ZM316.27 75.0315C306.701 75.0315 298.643 83.0169 298.643 92.4995C298.643 101.982 306.701 109.968 316.27 109.968C325.839 109.968 333.896 101.982 333.896 92.4995C333.896 83.0169 325.839 75.0315 316.27 75.0315Z">
    </path>
  </g>
  <defs>
    <clipPath id="clip0_2289_3312">
      <rect width="418" height="110.467" fill="white"></rect>
    </clipPath>
  </defs>
</svg>