<svg width="376" height="148" viewBox="0 0 376 148" fill="currentColor" xmlns="http://www.w3.org/2000/svg"
  class="logoImage">
  <path fill-rule="evenodd" clip-rule="evenodd"
    d="M376 76.3667C376 51.1085 363.049 31.1782 338.295 31.1782C313.438 31.1782 298.398 51.1085 298.398 76.1694C298.398 105.868 316.153 120.865 341.638 120.865C354.067 120.865 363.467 118.201 370.569 114.451V94.7184C363.467 98.073 355.32 100.145 344.98 100.145C334.849 100.145 325.867 96.7904 324.718 85.1479H375.791C375.791 83.8653 376 78.7347 376 76.3667ZM324.404 66.9936C324.404 55.8444 331.611 51.2072 338.191 51.2072C344.562 51.2072 351.351 55.8444 351.351 66.9936H324.404Z">
  </path>
  <path fill-rule="evenodd" clip-rule="evenodd"
    d="M258.082 31.1782C247.846 31.1782 241.266 35.7168 237.611 38.8741L236.253 32.7569H213.275V147.8L239.387 142.571L239.491 114.649C243.251 117.214 248.786 120.865 257.978 120.865C276.673 120.865 293.698 106.657 293.698 75.3801C293.593 46.7673 276.36 31.1782 258.082 31.1782ZM251.815 99.1583C245.653 99.1583 241.998 97.0864 239.491 94.5211L239.387 57.9164C242.102 55.0551 245.862 53.0818 251.815 53.0818C261.32 53.0818 267.9 63.1456 267.9 76.0707C267.9 89.2918 261.424 99.1583 251.815 99.1583Z">
  </path>
  <path fill-rule="evenodd" clip-rule="evenodd" d="M177.347 25.3569L203.562 20.029V0L177.347 5.22924V25.3569Z">
  </path>
  <path d="M203.562 32.8555H177.347V119.187H203.562V32.8555Z"></path>
  <path fill-rule="evenodd" clip-rule="evenodd"
    d="M149.251 40.1565L147.58 32.8553H125.02V119.187H151.131V60.6788C157.293 53.0816 167.738 54.4629 170.976 55.5482V32.8553C167.633 31.6713 155.413 29.5007 149.251 40.1565Z">
  </path>
  <path fill-rule="evenodd" clip-rule="evenodd"
    d="M97.0288 11.4453L71.5444 16.5759L71.4399 95.6065C71.4399 110.209 83.0333 120.963 98.4911 120.963C107.056 120.963 113.322 119.483 116.769 117.707V97.6784C113.427 98.9611 96.9244 103.5 96.9244 88.8972V53.8712H116.769V32.8556H96.9244L97.0288 11.4453Z">
  </path>
  <path fill-rule="evenodd" clip-rule="evenodd"
    d="M26.4244 57.9164C26.4244 54.0685 29.7667 52.5885 35.3022 52.5885C43.24 52.5885 53.2667 54.8578 61.2044 58.9031V35.7168C52.5356 32.4609 43.9711 31.1782 35.3022 31.1782C14.1 31.1782 0 41.6367 0 59.1004C0 86.3319 39.6889 81.9906 39.6889 93.7318C39.6889 98.2703 35.5111 99.7503 29.6622 99.7503C20.9933 99.7503 9.92222 96.3957 1.14889 91.8571V115.339C10.8622 119.286 20.68 120.963 29.6622 120.963C51.3867 120.963 66.3222 110.801 66.3222 93.1398C66.2178 63.7376 26.4244 68.9669 26.4244 57.9164Z">
  </path>
</svg>