<svg width="567" height="126" viewBox="0 0 567 126" fill="currentColor" xmlns="http://www.w3.org/2000/svg"
  class="logoImage">
  <path fill-rule="evenodd" clip-rule="evenodd"
    d="M71.8339 33.2115C72.3714 33.0706 72.6167 33.2742 72.935 33.6499C74.7615 35.8209 80.6481 43.3879 82.2502 45.4597C82.3086 45.5331 82.3515 45.6175 82.3761 45.708C82.4007 45.7985 82.4066 45.893 82.3934 45.9859C82.3802 46.0787 82.3482 46.1678 82.2994 46.2479C82.2505 46.3279 82.1859 46.3971 82.1093 46.4513C70.2422 56.2258 57.0392 70.05 49.681 79.955C49.5244 80.1638 49.6549 80.1794 49.7593 80.1325C62.5761 74.3084 92.677 65.014 106.256 62.4099V44.2803L53.1827 0L0 44.2803V64.0955C16.4855 53.7574 54.576 37.7518 71.8339 33.2115ZM318.569 6.16323H341.922V122.706H318.569V6.16323ZM301.269 6.16323H277.916V122.711H301.269V6.16323ZM456.329 46.4513H433.258L456.622 122.722H478.106L483.972 103.439C486.3 95.778 490.182 81.4737 490.182 81.4737C490.192 81.435 490.214 81.4006 490.245 81.376C490.276 81.3514 490.315 81.338 490.355 81.338C490.433 81.338 490.501 81.3902 490.527 81.4737C490.527 81.4737 494.415 96.0546 496.622 103.569L502.378 122.706H523.482L546.679 46.446H525.236L518.545 69.5177C516.503 76.8308 514.518 84.1598 512.591 91.5039C512.582 91.5426 512.56 91.577 512.528 91.6016C512.497 91.6262 512.458 91.6395 512.419 91.6396C512.379 91.6395 512.34 91.6262 512.309 91.6016C512.278 91.577 512.256 91.5426 512.247 91.5039C512.247 91.5039 508.646 77.424 506.313 69.5177L499.424 46.4513H482.381L475.367 69.5177C473.17 76.8969 469.313 91.5144 469.313 91.5144C469.301 91.5501 469.278 91.581 469.247 91.6026C469.216 91.6242 469.179 91.6353 469.141 91.6344C469.104 91.6342 469.068 91.6225 469.038 91.601C469.008 91.5795 468.986 91.5492 468.974 91.5144C468.974 91.5144 465.248 77.1631 463.014 69.5177L456.329 46.4513ZM353.481 84.8397C353.481 61.6689 371.188 44.5047 392.85 44.5047C414.299 44.5047 432.011 61.6741 432.011 84.8397C432.011 108.078 414.309 125.248 392.85 125.248C371.193 125.248 353.481 108.078 353.481 84.8554V84.8397ZM409.602 84.8397C409.602 73.4943 401.931 65.7707 392.85 65.7707C383.556 65.7707 375.89 73.4943 375.89 84.8397C375.89 96.2633 383.556 103.909 392.85 103.909C401.931 103.909 409.602 96.2633 409.602 84.8397ZM142.828 16.945V39.4165H184.101C184.268 39.4165 184.331 39.5835 184.248 39.7296L142.812 114.054L142.739 114.189C141.8 116.006 141.575 116.444 141.575 118.328V122.711H221.973V100.282H177.312C177.277 100.282 177.242 100.271 177.212 100.252C177.183 100.232 177.159 100.205 177.145 100.172C177.129 100.139 177.123 100.102 177.127 100.065C177.13 100.028 177.144 99.993 177.166 99.9634L219.082 24.6634L219.197 24.4233C219.489 23.7971 219.771 23.2126 219.771 21.647L219.781 16.9502L142.828 16.945ZM248.52 8.2507C255.8 8.2507 261.817 14.4505 261.817 22.0854C261.817 29.7255 255.8 35.9357 248.52 35.9357C241.24 35.9357 235.228 29.7359 235.228 22.0958C235.228 14.4557 241.24 8.25591 248.52 8.25591V8.2507ZM236.846 46.4513H260.194V122.711H236.846V46.4513ZM27.5072 109.185C27.7942 109.54 28.29 109.613 28.6553 109.362C48.3711 98.643 91.7428 85.038 106.256 82.4339V123.171H0.00521852V80.8474C10.9277 74.3241 40.4336 60.9435 50.8186 57.3635C51.0274 57.2904 51.0744 57.4157 50.8969 57.5566C40.9294 65.3689 25.305 83.8064 17.6493 95.658C17.2996 96.2112 17.3205 96.3886 17.5971 96.7278L27.5072 109.185ZM558.786 31.8547C560.805 31.8547 562.246 33.389 562.246 35.5808C562.246 37.2403 561.395 38.5502 560.101 39.0669L562.089 42.5112H560.2L558.353 39.3069H556.725V42.5007H555.065V31.8547H558.786ZM556.725 37.7413H558.682C559.783 37.7413 560.592 36.8437 560.592 35.5965C560.592 34.344 559.783 33.4307 558.687 33.4307H556.725V37.7413ZM558.285 28.1599C554.757 28.1599 551.579 30.4039 550.233 33.8378C549.57 35.5168 549.395 37.3491 549.729 39.1231C550.064 40.8971 550.893 42.5403 552.122 43.8628C553.303 45.1393 554.851 46.017 556.553 46.3742C558.255 46.7314 560.025 46.5504 561.62 45.8563C564.876 44.4316 567 41.076 567 37.3551C566.995 32.2774 563.096 28.1651 558.285 28.1599ZM558.285 44.7865C555.436 44.7865 552.868 42.9756 551.777 40.1993C551.242 38.8429 551.101 37.3628 551.371 35.9298C551.64 34.4967 552.31 33.169 553.301 32.1C555.316 29.9707 558.348 29.3341 560.978 30.4874C563.608 31.6355 565.325 34.3492 565.325 37.3551C565.32 41.457 562.173 44.7813 558.285 44.7865Z">
  </path>
</svg>